<svg xmlns="http://www.w3.org/2000/svg" aria-hidden="true">
  <symbol id="icon-book" viewBox="0 0 24 24"><path d="M3 5.5c3-1.2 6-1.2 9 .5 3-1.7 6-1.7 9-.5v13c-3-1.2-6-1.2-9 .5-3-1.7-6-1.7-9-.5z" fill="none" stroke="currentColor" stroke-width="1.8"/><path d="M12 6v14" stroke="currentColor" stroke-width="1.8"/></symbol>
  <symbol id="icon-cap" viewBox="0 0 24 24"><path d="M2.5 9 12 4l9.5 5L12 14z" fill="none" stroke="currentColor" stroke-width="1.8"/><path d="M6 11.5V16c3.5 2.2 8.5 2.2 12 0v-4.5M21 9v6" fill="none" stroke="currentColor" stroke-width="1.8"/></symbol>
  <symbol id="icon-chart" viewBox="0 0 24 24"><path d="M4 19V9m5 10V5m5 14v-7m5 7V3" fill="none" stroke="currentColor" stroke-width="1.8" stroke-linecap="round"/></symbol>
  <symbol id="icon-bulb" viewBox="0 0 24 24"><path d="M9 18h6m-5 3h4M8 14c-1.6-1.2-2.5-3-2.5-5A6.5 6.5 0 0 1 18.5 9c0 2-.9 3.8-2.5 5-1 .8-1.3 1.4-1.4 2H9.4c-.1-.6-.4-1.2-1.4-2Z" fill="none" stroke="currentColor" stroke-width="1.8"/></symbol>
  <symbol id="icon-gear" viewBox="0 0 24 24"><circle cx="12" cy="12" r="3" fill="none" stroke="currentColor" stroke-width="1.8"/><path d="M12 2.5v2M12 19.5v2M2.5 12h2M19.5 12h2M5.3 5.3l1.4 1.4M17.3 17.3l1.4 1.4M18.7 5.3l-1.4 1.4M6.7 17.3l-1.4 1.4" stroke="currentColor" stroke-width="1.8" stroke-linecap="round"/></symbol>
  <symbol id="icon-login" viewBox="0 0 24 24"><path d="M10 5H5v14h5M13 8l4 4-4 4M8 12h9" fill="none" stroke="currentColor" stroke-width="1.8" stroke-linecap="round" stroke-linejoin="round"/></symbol>
  <symbol id="icon-register" viewBox="0 0 24 24"><circle cx="9" cy="7" r="3" fill="none" stroke="currentColor" stroke-width="1.8"/><path d="M3.5 19c.6-4 2.6-6 5.5-6 2.4 0 4.2 1.4 5.1 4M18 9v6M15 12h6" fill="none" stroke="currentColor" stroke-width="1.8" stroke-linecap="round"/></symbol>
  <symbol id="icon-arrow" viewBox="0 0 24 24"><path d="M5 12h14M14 7l5 5-5 5" fill="none" stroke="currentColor" stroke-width="1.8" stroke-linecap="round" stroke-linejoin="round"/></symbol>
  <symbol id="icon-building" viewBox="0 0 24 24"><path d="M3 20h18M5 20V9h14v11M8 20v-5m4 5v-5m4 5v-5M4 9l8-5 8 5" fill="none" stroke="currentColor" stroke-width="1.8" stroke-linejoin="round"/></symbol>
</svg>